<?xml version="1.0" encoding="UTF-8" standalone="no"?>
<svg xmlns="http://www.w3.org/2000/svg" xmlns:xlink="http://www.w3.org/1999/xlink" style="isolation:isolate" viewBox="0 0 500 500" width="500pt" height="500pt"><defs><clipPath id="_clipPath_iQYKAdMBy3q0kDhtm7iANMPWcZ20v9BK"><rect width="500" height="500"/></clipPath></defs><g clip-path="url(#_clipPath_iQYKAdMBy3q0kDhtm7iANMPWcZ20v9BK)"><rect width="500" height="500" style="fill:rgb(58,67,94)" fill-opacity="0"/><g><path d=" M 316.104 174.708 L 183.896 174.708 L 180.417 188.625 L 197.812 199.062 L 190.854 188.625 L 309.146 188.625 L 302.188 199.062 L 319.583 188.625 L 316.104 174.708 Z " fill="rgb(176,190,197)"/><path d=" M 190.854 188.625 L 309.146 188.625 L 295.229 244.292 L 204.771 244.292 L 190.854 188.625 Z " fill="rgb(120,144,156)"/></g><path d=" M 250 82.5 C 176.35 82.5 116.5 142.35 116.5 216 C 116.5 289.65 176.35 349.5 250 349.5 C 323.65 349.5 383.5 289.65 383.5 216 C 383.5 142.35 323.65 82.5 250 82.5 Z  M 250 94.636 C 317.108 94.636 371.364 148.892 371.364 216 C 371.364 283.108 317.108 337.364 250 337.364 C 182.892 337.364 128.636 283.108 128.636 216 C 128.636 148.892 182.892 94.636 250 94.636 Z " fill="rgb(228,223,218)"/><rect x="205.034" y="253.775" width="89.931" height="163.725" transform="matrix(1,0,0,1,0,0)" fill="rgb(206,121,107)"/></g></svg>
